<svg id="visual" viewBox="0 0 900 600" width="900" height="600" xmlns="http://www.w3.org/2000/svg" xmlns:xlink="http://www.w3.org/1999/xlink" version="1.1"><g stroke-width="1" stroke-linejoin="bevel"><path d="M404.4 301.3L392.4 294.7L372.2 358.3Z" fill="#005e93" stroke="#005e93"></path><path d="M392.4 294.7L311.9 330.3L372.2 358.3Z" fill="#0a91f1" stroke="#0a91f1"></path><path d="M311.9 330.3L317.2 372L372.2 358.3Z" fill="#004468" stroke="#004468"></path><path d="M374.2 469.7L432.4 410L372.2 358.3Z" fill="#03202d" stroke="#03202d"></path><path d="M372.2 358.3L432.4 410L404.4 301.3Z" fill="#003853" stroke="#003853"></path><path d="M392.4 294.7L306.2 247.7L311.9 330.3Z" fill="#00517d" stroke="#00517d"></path><path d="M216.7 368L310.9 411L317.2 372Z" fill="#003853" stroke="#003853"></path><path d="M317.2 372L310.9 411L372.2 358.3Z" fill="#006aaa" stroke="#006aaa"></path><path d="M216.7 368L317.2 372L311.9 330.3Z" fill="#003853" stroke="#003853"></path><path d="M377.2 187L296.9 233L306.2 247.7Z" fill="#0a91f1" stroke="#0a91f1"></path><path d="M306.2 247.7L238.7 298.3L311.9 330.3Z" fill="#0084d9" stroke="#0084d9"></path><path d="M377.2 187L306.2 247.7L392.4 294.7Z" fill="#002c40" stroke="#002c40"></path><path d="M503.6 230.7L430.4 206L404.4 301.3Z" fill="#00141c" stroke="#00141c"></path><path d="M404.4 301.3L430.4 206L392.4 294.7Z" fill="#004468" stroke="#004468"></path><path d="M512.6 388L516.6 303.3L404.4 301.3Z" fill="#002c40" stroke="#002c40"></path><path d="M430.4 206L377.2 187L392.4 294.7Z" fill="#03202d" stroke="#03202d"></path><path d="M310.9 411L374.2 469.7L372.2 358.3Z" fill="#004468" stroke="#004468"></path><path d="M506.6 458.7L512.6 388L432.4 410Z" fill="#0084d9" stroke="#0084d9"></path><path d="M432.4 410L512.6 388L404.4 301.3Z" fill="#003853" stroke="#003853"></path><path d="M300.9 122.3L269.9 233.7L296.9 233Z" fill="#0084d9" stroke="#0084d9"></path><path d="M296.9 233L269.9 233.7L306.2 247.7Z" fill="#03202d" stroke="#03202d"></path><path d="M269.9 233.7L238.7 298.3L306.2 247.7Z" fill="#0a91f1" stroke="#0a91f1"></path><path d="M391.4 520.3L377.4 473.7L376.2 549.3Z" fill="#03202d" stroke="#03202d"></path><path d="M374.2 469.7L377.4 473.7L432.4 410Z" fill="#002c40" stroke="#002c40"></path><path d="M516.6 303.3L503.6 230.7L404.4 301.3Z" fill="#003853" stroke="#003853"></path><path d="M438.4 112.3L347.2 123.3L377.2 187Z" fill="#006aaa" stroke="#006aaa"></path><path d="M584.1 265.7L526.8 257.7L516.6 303.3Z" fill="#00517d" stroke="#00517d"></path><path d="M516.6 303.3L526.8 257.7L503.6 230.7Z" fill="#0084d9" stroke="#0084d9"></path><path d="M526.8 257.7L519.6 239L503.6 230.7Z" fill="#005e93" stroke="#005e93"></path><path d="M512.6 388L546.8 331.3L516.6 303.3Z" fill="#005e93" stroke="#005e93"></path><path d="M238.7 298.3L216.7 368L311.9 330.3Z" fill="#0077c1" stroke="#0077c1"></path><path d="M310.9 411L248.9 488.7L374.2 469.7Z" fill="#03202d" stroke="#03202d"></path><path d="M300.9 122.3L232.7 238L269.9 233.7Z" fill="#004468" stroke="#004468"></path><path d="M269.9 233.7L232.7 238L238.7 298.3Z" fill="#002c40" stroke="#002c40"></path><path d="M238.7 298.3L146.5 317.3L216.7 368Z" fill="#003853" stroke="#003853"></path><path d="M526.8 257.7L521.8 222L519.6 239Z" fill="#004468" stroke="#004468"></path><path d="M519.6 239L521.8 222L503.6 230.7Z" fill="#0a91f1" stroke="#0a91f1"></path><path d="M503.6 230.7L480.6 137.3L430.4 206Z" fill="#00517d" stroke="#00517d"></path><path d="M584.1 265.7L521.8 222L526.8 257.7Z" fill="#004468" stroke="#004468"></path><path d="M454.6 533.3L506.6 458.7L432.4 410Z" fill="#003853" stroke="#003853"></path><path d="M512.6 388L591.1 400L546.8 331.3Z" fill="#005e93" stroke="#005e93"></path><path d="M506.6 458.7L538.8 427.7L512.6 388Z" fill="#003853" stroke="#003853"></path><path d="M216.7 368L237.7 443.7L310.9 411Z" fill="#002c40" stroke="#002c40"></path><path d="M232.7 238L204.7 255.7L238.7 298.3Z" fill="#005e93" stroke="#005e93"></path><path d="M506.6 458.7L541.8 435L538.8 427.7Z" fill="#006aaa" stroke="#006aaa"></path><path d="M538.8 427.7L591.1 400L512.6 388Z" fill="#005e93" stroke="#005e93"></path><path d="M376.2 549.3L377.4 473.7L374.2 469.7Z" fill="#03202d" stroke="#03202d"></path><path d="M377.4 473.7L454.6 533.3L432.4 410Z" fill="#0084d9" stroke="#0084d9"></path><path d="M438.4 112.3L377.2 187L430.4 206Z" fill="#004468" stroke="#004468"></path><path d="M377.2 187L300.9 122.3L296.9 233Z" fill="#006aaa" stroke="#006aaa"></path><path d="M157.5 212L157.5 271.7L204.7 255.7Z" fill="#003853" stroke="#003853"></path><path d="M249.9 511.3L248.9 488.7L174.5 526.3Z" fill="#003853" stroke="#003853"></path><path d="M237.7 443.7L248.9 488.7L310.9 411Z" fill="#00517d" stroke="#00517d"></path><path d="M611.1 351.3L584.1 265.7L546.8 331.3Z" fill="#03202d" stroke="#03202d"></path><path d="M546.8 331.3L584.1 265.7L516.6 303.3Z" fill="#004468" stroke="#004468"></path><path d="M587.1 147.3L480.6 137.3L521.8 222Z" fill="#00141c" stroke="#00141c"></path><path d="M521.8 222L480.6 137.3L503.6 230.7Z" fill="#005e93" stroke="#005e93"></path><path d="M391.4 520.3L454.6 533.3L377.4 473.7Z" fill="#00517d" stroke="#00517d"></path><path d="M581.8 493.3L587.1 479.7L541.8 435Z" fill="#0084d9" stroke="#0084d9"></path><path d="M347.2 123.3L300.9 122.3L377.2 187Z" fill="#006aaa" stroke="#006aaa"></path><path d="M587.1 479.7L591.1 400L541.8 435Z" fill="#005e93" stroke="#005e93"></path><path d="M541.8 435L591.1 400L538.8 427.7Z" fill="#0084d9" stroke="#0084d9"></path><path d="M480.6 137.3L438.4 112.3L430.4 206Z" fill="#03202d" stroke="#03202d"></path><path d="M347.2 123.3L298.9 54.7L300.9 122.3Z" fill="#0084d9" stroke="#0084d9"></path><path d="M249.9 511.3L376.2 549.3L374.2 469.7Z" fill="#0084d9" stroke="#0084d9"></path><path d="M391.4 520.3L376.2 549.3L454.6 533.3Z" fill="#0084d9" stroke="#0084d9"></path><path d="M174.5 526.3L248.9 488.7L237.7 443.7Z" fill="#00141c" stroke="#00141c"></path><path d="M248.9 488.7L249.9 511.3L374.2 469.7Z" fill="#004468" stroke="#004468"></path><path d="M591.1 400L611.1 351.3L546.8 331.3Z" fill="#005e93" stroke="#005e93"></path><path d="M157.5 212L204.7 255.7L232.7 238Z" fill="#0a91f1" stroke="#0a91f1"></path><path d="M204.7 255.7L157.5 271.7L238.7 298.3Z" fill="#0077c1" stroke="#0077c1"></path><path d="M216.7 368L155.5 441.7L237.7 443.7Z" fill="#0077c1" stroke="#0077c1"></path><path d="M157.5 271.7L146.5 317.3L238.7 298.3Z" fill="#003853" stroke="#003853"></path><path d="M584.1 265.7L597.1 197L521.8 222Z" fill="#00141c" stroke="#00141c"></path><path d="M440.4 51.7L377.2 58.7L438.4 112.3Z" fill="#006aaa" stroke="#006aaa"></path><path d="M711.3 225L597.1 197L584.1 265.7Z" fill="#006aaa" stroke="#006aaa"></path><path d="M146.5 317.3L138.5 384L216.7 368Z" fill="#0084d9" stroke="#0084d9"></path><path d="M200.7 96.3L157.5 212L232.7 238Z" fill="#003853" stroke="#003853"></path><path d="M157.5 271.7L53.2 304.7L146.5 317.3Z" fill="#004468" stroke="#004468"></path><path d="M87.2 438L107.2 429.7L55.2 372.3Z" fill="#03202d" stroke="#03202d"></path><path d="M138.5 384L155.5 441.7L216.7 368Z" fill="#03202d" stroke="#03202d"></path><path d="M581.8 493.3L541.8 435L506.6 458.7Z" fill="#0077c1" stroke="#0077c1"></path><path d="M591.1 400L680.3 339.3L611.1 351.3Z" fill="#005e93" stroke="#005e93"></path><path d="M454.6 533.3L581.8 493.3L506.6 458.7Z" fill="#0a91f1" stroke="#0a91f1"></path><path d="M438.4 112.3L377.2 58.7L347.2 123.3Z" fill="#0084d9" stroke="#0084d9"></path><path d="M300.9 122.3L200.7 96.3L232.7 238Z" fill="#03202d" stroke="#03202d"></path><path d="M440.4 51.7L438.4 112.3L473.6 43.7Z" fill="#0a91f1" stroke="#0a91f1"></path><path d="M597.1 197L587.1 147.3L521.8 222Z" fill="#002c40" stroke="#002c40"></path><path d="M376.2 549.3L436.4 600L454.6 533.3Z" fill="#0a91f1" stroke="#0a91f1"></path><path d="M575.8 600L604.1 540.3L581.8 493.3Z" fill="#004468" stroke="#004468"></path><path d="M322.2 600L436.4 600L376.2 549.3Z" fill="#005e93" stroke="#005e93"></path><path d="M250.9 600L322.2 600L249.9 511.3Z" fill="#003853" stroke="#003853"></path><path d="M249.9 511.3L322.2 600L376.2 549.3Z" fill="#002c40" stroke="#002c40"></path><path d="M436.4 600L445.6 600L454.6 533.3Z" fill="#004468" stroke="#004468"></path><path d="M473.6 43.7L438.4 112.3L480.6 137.3Z" fill="#004468" stroke="#004468"></path><path d="M347.2 0L298.9 54.7L377.2 58.7Z" fill="#00141c" stroke="#00141c"></path><path d="M377.2 58.7L298.9 54.7L347.2 123.3Z" fill="#006aaa" stroke="#006aaa"></path><path d="M587.1 147.3L563.8 106.3L480.6 137.3Z" fill="#0084d9" stroke="#0084d9"></path><path d="M88.2 521.3L174.5 526.3L155.5 441.7Z" fill="#006aaa" stroke="#006aaa"></path><path d="M155.5 441.7L174.5 526.3L237.7 443.7Z" fill="#00517d" stroke="#00517d"></path><path d="M298.9 54.7L200.7 96.3L300.9 122.3Z" fill="#005e93" stroke="#005e93"></path><path d="M107.2 429.7L138.5 384L55.2 372.3Z" fill="#006aaa" stroke="#006aaa"></path><path d="M138.5 384L107.2 429.7L155.5 441.7Z" fill="#00517d" stroke="#00517d"></path><path d="M563.8 106.3L473.6 43.7L480.6 137.3Z" fill="#00517d" stroke="#00517d"></path><path d="M440.4 51.7L375.4 0L377.2 58.7Z" fill="#005e93" stroke="#005e93"></path><path d="M721.3 414L680.3 339.3L591.1 400Z" fill="#0077c1" stroke="#0077c1"></path><path d="M611.1 351.3L680.3 339.3L584.1 265.7Z" fill="#03202d" stroke="#03202d"></path><path d="M653.3 117.3L585.1 103.7L587.1 147.3Z" fill="#00517d" stroke="#00517d"></path><path d="M721.3 414L591.1 400L716.3 432.7Z" fill="#0077c1" stroke="#0077c1"></path><path d="M174.5 526.3L212.7 572.3L249.9 511.3Z" fill="#004468" stroke="#004468"></path><path d="M587.1 147.3L585.1 103.7L563.8 106.3Z" fill="#006aaa" stroke="#006aaa"></path><path d="M563.8 106.3L574.8 93.7L473.6 43.7Z" fill="#00517d" stroke="#00517d"></path><path d="M653.3 117.3L587.1 147.3L597.1 197Z" fill="#00517d" stroke="#00517d"></path><path d="M585.1 103.7L574.8 93.7L563.8 106.3Z" fill="#0077c1" stroke="#0077c1"></path><path d="M212.7 572.3L250.9 600L249.9 511.3Z" fill="#004468" stroke="#004468"></path><path d="M200.7 96.3L138.5 141.3L157.5 212Z" fill="#003853" stroke="#003853"></path><path d="M54.2 190L53.2 304.7L157.5 271.7Z" fill="#0a91f1" stroke="#0a91f1"></path><path d="M575.8 600L581.8 493.3L454.6 533.3Z" fill="#0a91f1" stroke="#0a91f1"></path><path d="M581.8 493.3L604.1 540.3L587.1 479.7Z" fill="#00141c" stroke="#00141c"></path><path d="M55.2 372.3L138.5 384L146.5 317.3Z" fill="#003853" stroke="#003853"></path><path d="M107.2 429.7L88.2 521.3L155.5 441.7Z" fill="#00141c" stroke="#00141c"></path><path d="M174.5 526.3L167.7 600L212.7 572.3Z" fill="#00517d" stroke="#00517d"></path><path d="M200.7 96.3L169.5 80.7L138.5 141.3Z" fill="#0a91f1" stroke="#0a91f1"></path><path d="M182.7 48.7L169.5 80.7L200.7 96.3Z" fill="#003853" stroke="#003853"></path><path d="M450.6 0L375.4 0L440.4 51.7Z" fill="#0084d9" stroke="#0084d9"></path><path d="M298.9 54.7L182.7 48.7L200.7 96.3Z" fill="#00517d" stroke="#00517d"></path><path d="M375.4 0L347.2 0L377.2 58.7Z" fill="#003853" stroke="#003853"></path><path d="M54.2 190L157.5 212L138.5 141.3Z" fill="#003853" stroke="#003853"></path><path d="M54.2 190L157.5 271.7L157.5 212Z" fill="#00141c" stroke="#00141c"></path><path d="M53.2 304.7L55.2 372.3L146.5 317.3Z" fill="#004468" stroke="#004468"></path><path d="M525.8 0L450.6 0L473.6 43.7Z" fill="#0077c1" stroke="#0077c1"></path><path d="M473.6 43.7L450.6 0L440.4 51.7Z" fill="#0a91f1" stroke="#0a91f1"></path><path d="M445.6 600L575.8 600L454.6 533.3Z" fill="#00517d" stroke="#00517d"></path><path d="M347.2 0L301.9 0L298.9 54.7Z" fill="#0084d9" stroke="#0084d9"></path><path d="M585.1 103.7L666.3 39.7L574.8 93.7Z" fill="#03202d" stroke="#03202d"></path><path d="M574.8 93.7L525.8 0L473.6 43.7Z" fill="#006aaa" stroke="#006aaa"></path><path d="M711.3 225L653.3 117.3L597.1 197Z" fill="#03202d" stroke="#03202d"></path><path d="M210.7 0L182.7 48.7L298.9 54.7Z" fill="#0a91f1" stroke="#0a91f1"></path><path d="M56.2 156.3L54.2 190L138.5 141.3Z" fill="#0077c1" stroke="#0077c1"></path><path d="M723.3 267.7L711.3 225L584.1 265.7Z" fill="#004468" stroke="#004468"></path><path d="M680.3 339.3L723.3 267.7L584.1 265.7Z" fill="#00141c" stroke="#00141c"></path><path d="M729.5 304.7L723.3 267.7L680.3 339.3Z" fill="#005e93" stroke="#005e93"></path><path d="M160.5 600L167.7 600L174.5 526.3Z" fill="#005e93" stroke="#005e93"></path><path d="M212.7 572.3L167.7 600L250.9 600Z" fill="#004468" stroke="#004468"></path><path d="M749.5 318.3L729.5 304.7L680.3 339.3Z" fill="#002c40" stroke="#002c40"></path><path d="M591.1 400L587.1 479.7L716.3 432.7Z" fill="#004468" stroke="#004468"></path><path d="M716.3 432.7L587.1 479.7L604.1 540.3Z" fill="#0a91f1" stroke="#0a91f1"></path><path d="M739.5 427.7L716.3 432.7L717.3 555.3Z" fill="#03202d" stroke="#03202d"></path><path d="M88.2 521.3L160.5 600L174.5 526.3Z" fill="#0077c1" stroke="#0077c1"></path><path d="M88.2 521.3L107.2 429.7L87.2 438Z" fill="#006aaa" stroke="#006aaa"></path><path d="M0 436.7L88.2 521.3L87.2 438Z" fill="#03202d" stroke="#03202d"></path><path d="M56.2 156.3L138.5 141.3L83.2 62.7Z" fill="#0077c1" stroke="#0077c1"></path><path d="M652.1 0L525.8 0L574.8 93.7Z" fill="#005e93" stroke="#005e93"></path><path d="M721.3 414L749.5 318.3L680.3 339.3Z" fill="#00141c" stroke="#00141c"></path><path d="M729.5 304.7L749.5 318.3L723.3 267.7Z" fill="#0084d9" stroke="#0084d9"></path><path d="M723.3 267.7L788.5 200L711.3 225Z" fill="#00141c" stroke="#00141c"></path><path d="M792.8 379L749.5 318.3L721.3 414Z" fill="#0077c1" stroke="#0077c1"></path><path d="M83.2 62.7L138.5 141.3L169.5 80.7Z" fill="#0084d9" stroke="#0084d9"></path><path d="M301.9 0L210.7 0L298.9 54.7Z" fill="#0084d9" stroke="#0084d9"></path><path d="M182.7 48.7L83.2 62.7L169.5 80.7Z" fill="#006aaa" stroke="#006aaa"></path><path d="M717.3 555.3L716.3 432.7L604.1 540.3Z" fill="#0084d9" stroke="#0084d9"></path><path d="M716.3 432.7L739.5 427.7L721.3 414Z" fill="#005e93" stroke="#005e93"></path><path d="M575.8 600L635.1 600L604.1 540.3Z" fill="#0a91f1" stroke="#0a91f1"></path><path d="M53.2 304.7L0 335.3L55.2 372.3Z" fill="#00517d" stroke="#00517d"></path><path d="M55.2 372.3L0 436.7L87.2 438Z" fill="#03202d" stroke="#03202d"></path><path d="M0 274.7L0 335.3L53.2 304.7Z" fill="#0084d9" stroke="#0084d9"></path><path d="M0 274.7L53.2 304.7L54.2 190Z" fill="#003853" stroke="#003853"></path><path d="M0 165L0 274.7L54.2 190Z" fill="#00517d" stroke="#00517d"></path><path d="M0 335.3L0 395L55.2 372.3Z" fill="#004468" stroke="#004468"></path><path d="M0 395L0 436.7L55.2 372.3Z" fill="#002c40" stroke="#002c40"></path><path d="M88.2 521.3L85.2 600L160.5 600Z" fill="#005e93" stroke="#005e93"></path><path d="M101.5 0L83.2 62.7L182.7 48.7Z" fill="#0a91f1" stroke="#0a91f1"></path><path d="M56.2 156.3L0 165L54.2 190Z" fill="#0077c1" stroke="#0077c1"></path><path d="M729.5 78.7L666.3 39.7L653.3 117.3Z" fill="#002c40" stroke="#002c40"></path><path d="M653.3 117.3L666.3 39.7L585.1 103.7Z" fill="#0a91f1" stroke="#0a91f1"></path><path d="M729.5 78.7L653.3 117.3L711.3 225Z" fill="#002c40" stroke="#002c40"></path><path d="M0 569.3L85.2 600L88.2 521.3Z" fill="#005e93" stroke="#005e93"></path><path d="M635.1 600L717.3 555.3L604.1 540.3Z" fill="#0084d9" stroke="#0084d9"></path><path d="M818.8 335.3L793.8 304.7L749.5 318.3Z" fill="#03202d" stroke="#03202d"></path><path d="M749.5 318.3L793.8 304.7L723.3 267.7Z" fill="#003853" stroke="#003853"></path><path d="M792.8 379L721.3 414L792.5 401Z" fill="#0077c1" stroke="#0077c1"></path><path d="M792.5 401L721.3 414L739.5 427.7Z" fill="#0a91f1" stroke="#0a91f1"></path><path d="M0 100.3L0 165L56.2 156.3Z" fill="#0084d9" stroke="#0084d9"></path><path d="M832.8 502.7L792.5 401L739.5 427.7Z" fill="#005e93" stroke="#005e93"></path><path d="M792.8 379L818.8 335.3L749.5 318.3Z" fill="#0077c1" stroke="#0077c1"></path><path d="M635.1 600L697.3 600L717.3 555.3Z" fill="#004468" stroke="#004468"></path><path d="M717.3 555.3L806.8 542.3L739.5 427.7Z" fill="#003853" stroke="#003853"></path><path d="M692.3 0L652.1 0L666.3 39.7Z" fill="#006aaa" stroke="#006aaa"></path><path d="M666.3 39.7L652.1 0L574.8 93.7Z" fill="#003853" stroke="#003853"></path><path d="M793.8 304.7L788.5 200L723.3 267.7Z" fill="#004468" stroke="#004468"></path><path d="M797.5 156.3L729.5 78.7L711.3 225Z" fill="#00141c" stroke="#00141c"></path><path d="M210.7 0L101.5 0L182.7 48.7Z" fill="#03202d" stroke="#03202d"></path><path d="M83.2 62.7L0 100.3L56.2 156.3Z" fill="#003853" stroke="#003853"></path><path d="M900 369L818.8 335.3L792.8 379Z" fill="#03202d" stroke="#03202d"></path><path d="M793.8 304.7L821.8 205L788.5 200Z" fill="#00141c" stroke="#00141c"></path><path d="M0 95.7L0 100.3L83.2 62.7Z" fill="#006aaa" stroke="#006aaa"></path><path d="M47.2 0L0 95.7L83.2 62.7Z" fill="#00517d" stroke="#00517d"></path><path d="M821.8 205L797.5 156.3L788.5 200Z" fill="#00141c" stroke="#00141c"></path><path d="M788.5 200L797.5 156.3L711.3 225Z" fill="#0084d9" stroke="#0084d9"></path><path d="M743.5 0L692.3 0L729.5 78.7Z" fill="#0084d9" stroke="#0084d9"></path><path d="M729.5 78.7L692.3 0L666.3 39.7Z" fill="#006aaa" stroke="#006aaa"></path><path d="M0 436.7L0 569.3L88.2 521.3Z" fill="#0a91f1" stroke="#0a91f1"></path><path d="M900 289.7L821.8 205L793.8 304.7Z" fill="#03202d" stroke="#03202d"></path><path d="M101.5 0L47.2 0L83.2 62.7Z" fill="#006aaa" stroke="#006aaa"></path><path d="M0 569.3L0 600L85.2 600Z" fill="#006aaa" stroke="#006aaa"></path><path d="M697.3 600L771.5 600L717.3 555.3Z" fill="#0a91f1" stroke="#0a91f1"></path><path d="M900 369L900 308.3L818.8 335.3Z" fill="#00141c" stroke="#00141c"></path><path d="M791.5 570.3L806.8 542.3L717.3 555.3Z" fill="#03202d" stroke="#03202d"></path><path d="M771.5 600L791.5 570.3L717.3 555.3Z" fill="#006aaa" stroke="#006aaa"></path><path d="M806.8 542.3L832.8 502.7L739.5 427.7Z" fill="#00517d" stroke="#00517d"></path><path d="M818.8 335.3L900 289.7L793.8 304.7Z" fill="#03202d" stroke="#03202d"></path><path d="M900 524.3L832.8 502.7L806.8 542.3Z" fill="#003853" stroke="#003853"></path><path d="M800.8 0L743.5 0L729.5 78.7Z" fill="#00141c" stroke="#00141c"></path><path d="M829.8 117.3L729.5 78.7L797.5 156.3Z" fill="#00141c" stroke="#00141c"></path><path d="M900 120.3L829.8 117.3L821.8 205Z" fill="#00517d" stroke="#00517d"></path><path d="M821.8 205L829.8 117.3L797.5 156.3Z" fill="#00141c" stroke="#00141c"></path><path d="M47.2 0L0 0L0 95.7Z" fill="#004468" stroke="#004468"></path><path d="M771.5 600L816.8 600L791.5 570.3Z" fill="#0084d9" stroke="#0084d9"></path><path d="M791.5 570.3L816.8 600L806.8 542.3Z" fill="#00517d" stroke="#00517d"></path><path d="M900 369L792.8 379L792.5 401Z" fill="#0084d9" stroke="#0084d9"></path><path d="M900 369L792.5 401L900 481.7Z" fill="#003853" stroke="#003853"></path><path d="M900 308.3L900 289.7L818.8 335.3Z" fill="#0084d9" stroke="#0084d9"></path><path d="M900 481.7L792.5 401L832.8 502.7Z" fill="#0077c1" stroke="#0077c1"></path><path d="M900 289.7L900 212L821.8 205Z" fill="#00141c" stroke="#00141c"></path><path d="M840.8 47.7L800.8 0L729.5 78.7Z" fill="#03202d" stroke="#03202d"></path><path d="M840.8 47.7L729.5 78.7L829.8 117.3Z" fill="#0a91f1" stroke="#0a91f1"></path><path d="M900 65.7L840.8 47.7L829.8 117.3Z" fill="#005e93" stroke="#005e93"></path><path d="M900 524.3L900 481.7L832.8 502.7Z" fill="#0a91f1" stroke="#0a91f1"></path><path d="M900 600L900 524.3L806.8 542.3Z" fill="#006aaa" stroke="#006aaa"></path><path d="M900 212L900 120.3L821.8 205Z" fill="#03202d" stroke="#03202d"></path><path d="M900 120.3L900 65.7L829.8 117.3Z" fill="#00517d" stroke="#00517d"></path><path d="M840.8 47.7L900 0L800.8 0Z" fill="#003853" stroke="#003853"></path><path d="M816.8 600L900 600L806.8 542.3Z" fill="#005e93" stroke="#005e93"></path><path d="M900 65.7L900 0L840.8 47.7Z" fill="#0084d9" stroke="#0084d9"></path></g></svg>